HIERARCHY
ROOT root
{
  OFFSET 0 93.2929 0
  CHANNELS 6 Xposition Yposition Zposition Zrotation Xrotation Yrotation
  JOINT torso_1
  {
    OFFSET 0 5.07867 -1.15138
    CHANNELS 6 Xposition Yposition Zposition Zrotation Xrotation Yrotation
    JOINT torso_2
    {
      OFFSET 0 5.61661 1.07143
      CHANNELS 6 Xposition Yposition Zposition Zrotation Xrotation Yrotation
      JOINT torso_3
      {
        OFFSET -1.02604e-17 5.98978 0.11501
        CHANNELS 6 Xposition Yposition Zposition Zrotation Xrotation Yrotation
        JOINT torso_4
        {
          OFFSET -1.10457e-17 6.50583 -0.443523
          CHANNELS 6 Xposition Yposition Zposition Zrotation Xrotation Yrotation
          JOINT torso_5
          {
            OFFSET -1.97295e-17 7.60548 -1.50593
            CHANNELS 6 Xposition Yposition Zposition Zrotation Xrotation Yrotation
            JOINT torso_6
            {
              OFFSET -2.53307e-17 9.49737 -0.914492
              CHANNELS 6 Xposition Yposition Zposition Zrotation Xrotation Yrotation
              JOINT torso_7
              {
                OFFSET -2.90401e-17 10.5513 1.57691
                CHANNELS 6 Xposition Yposition Zposition Zrotation Xrotation Yrotation
                JOINT neck_1
                {
                  OFFSET -1.29193e-17 4.78644 0.715339
                  CHANNELS 6 Xposition Yposition Zposition Zrotation Xrotation Yrotation
                  JOINT neck_2
                  {
                    OFFSET -1.8116e-17 4.82109 0.421791
                    CHANNELS 6 Xposition Yposition Zposition Zrotation Xrotation Yrotation
                    JOINT head
                    {
                      OFFSET -2.00958e-17 4.83041 0.765062
                      CHANNELS 6 Xposition Yposition Zposition Zrotation Xrotation Yrotation
                      End Site
                      {
                        OFFSET 0 0.1 0
                      }
                    }
                  }
                }
                JOINT l_shoulder
                {
                  OFFSET 1.23299 -7.60731 7.53374
                  CHANNELS 6 Xposition Yposition Zposition Zrotation Xrotation Yrotation
                  JOINT l_up_arm
                  {
                    OFFSET 12.9547 3.2495 -3.26872
                    CHANNELS 6 Xposition Yposition Zposition Zrotation Xrotation Yrotation
                    JOINT l_low_arm
                    {
                      OFFSET 29.2081 0.0598081 0.137039
                      CHANNELS 6 Xposition Yposition Zposition Zrotation Xrotation Yrotation
                      JOINT l_hand
                      {
                        OFFSET 24.234 0.0496219 0.113701
                        CHANNELS 6 Xposition Yposition Zposition Zrotation Xrotation Yrotation
                        End Site
                        {
                          OFFSET 0.1 0 0
                        }
                      }
                    }
                  }
                }
                JOINT r_shoulder
                {
                  OFFSET -1.23299 -7.60729 7.53365
                  CHANNELS 6 Xposition Yposition Zposition Zrotation Xrotation Yrotation
                  JOINT r_up_arm
                  {
                    OFFSET -12.9547 3.2495 -3.26872
                    CHANNELS 6 Xposition Yposition Zposition Zrotation Xrotation Yrotation
                    JOINT r_low_arm
                    {
                      OFFSET -29.2081 0.0598081 0.137039
                      CHANNELS 6 Xposition Yposition Zposition Zrotation Xrotation Yrotation
                      JOINT r_hand
                      {
                        OFFSET -24.234 0.0496218 0.113702
                        CHANNELS 6 Xposition Yposition Zposition Zrotation Xrotation Yrotation
                        End Site
                        {
                          OFFSET -0.1 0 0
                        }
                      }
                    }
                  }
                }
              }
            }
          }
        }
      }
    }
  }
  JOINT l_up_leg
  {
    OFFSET 9.23673 -4.20556 2.0327
    CHANNELS 6 Xposition Yposition Zposition Zrotation Xrotation Yrotation
    JOINT l_low_leg
    {
      OFFSET -0.852353 -38.7721 -0.655187
      CHANNELS 6 Xposition Yposition Zposition Zrotation Xrotation Yrotation
      JOINT l_foot
      {
        OFFSET -2.32622 -40.4017 -6.04875
        CHANNELS 6 Xposition Yposition Zposition Zrotation Xrotation Yrotation
        JOINT l_toes
        {
          OFFSET 0.779096 -9.8844 12.4959
          CHANNELS 6 Xposition Yposition Zposition Zrotation Xrotation Yrotation
          End Site
          {
            OFFSET 0 0 0.1
          }
        }
      }
    }
  }
  JOINT r_up_leg
  {
    OFFSET -9.23673 -4.20556 2.0327
    CHANNELS 6 Xposition Yposition Zposition Zrotation Xrotation Yrotation
    JOINT r_low_leg
    {
      OFFSET 0.852353 -38.7721 -0.655187
      CHANNELS 6 Xposition Yposition Zposition Zrotation Xrotation Yrotation
      JOINT r_foot
      {
        OFFSET 2.32622 -40.4017 -6.04875
        CHANNELS 6 Xposition Yposition Zposition Zrotation Xrotation Yrotation
        JOINT r_toes
        {
          OFFSET -0.779096 -9.8844 12.4959
          CHANNELS 6 Xposition Yposition Zposition Zrotation Xrotation Yrotation
          End Site
          {
            OFFSET 0 0 0.1
          }
        }
      }
    }
  }
}
MOTION
Frames: 5
Frame Time: 0.016667
0 93.2929 0 -0 0 -0 0 5.07867 -1.15138 -0 0 -0 0 5.61661 1.07143 -0 0 -0 -1.02604e-17 5.98978 0.11501 -0 0 -0 -1.10457e-17 6.50583 -0.443523 -0 0 -0 -1.97295e-17 7.60548 -1.50593 -0 0 -0 -2.53307e-17 9.49737 -0.914492 -0 0 -0 -2.90401e-17 10.5513 1.57691 -0 0 -0 -1.29193e-17 4.78644 0.715339 -0 0 -0 -1.8116e-17 4.82109 0.421791 -0 0 -0 -2.00958e-17 4.83041 0.765062 -0 0 -0 1.23299 -7.60731 7.53374 -0 0 -0 12.9547 3.2495 -3.26872 -0 0 -0 29.2081 0.0598081 0.137039 -0 0 -0 24.234 0.0496219 0.113701 -0 0 -0 -1.23299 -7.60729 7.53365 -0 0 -0 -12.9547 3.2495 -3.26872 -0 0 -0 -29.2081 0.0598081 0.137039 -0 0 -0 -24.234 0.0496218 0.113702 -0 0 -0 9.23673 -4.20556 2.0327 -0 0 -0 -0.852353 -38.7721 -0.655187 -0 0 -0 -2.32622 -40.4017 -6.04875 -0 0 -0 0.779096 -9.8844 12.4959 -0 0 -0 -9.23673 -4.20556 2.0327 -0 0 -0 0.852353 -38.7721 -0.655187 -0 0 -0 2.32622 -40.4017 -6.04875 -0 0 -0 -0.779096 -9.8844 12.4959 -0 0 -0 
1.47573 91.5597 32.4277 6.83618 -5.21294 -0.129481 0 5.07867 -1.15138 -2.7833 2.89774 0.257848 0 5.61661 1.07143 -2.20309 2.20964 -0.0298761 -1.02604e-17 5.98978 0.11501 -1.68084 1.72295 0.0776251 -1.10457e-17 6.50583 -0.443523 -1.1025 0.410156 0.0616492 -1.97295e-17 7.60548 -1.50593 -0.483498 -0.143405 0.150318 -2.53307e-17 9.49737 -0.914492 0.163092 -1.30576 -0.165853 -2.90401e-17 10.5513 1.57691 0.001238 0.834434 -0.0793633 -1.29193e-17 4.78644 0.715339 0.336895 6.15576 1.41732 -1.8116e-17 4.82109 0.421791 0.41295 -3.39265 0.436333 -2.00958e-17 4.83041 0.765062 -0.512835 -5.3081 1.36663 1.23299 -7.60731 7.53374 14.7961 3.91333 2.71523 12.9547 3.2495 -3.26872 -97.2771 26.2406 6.45775 29.2081 0.0598081 0.137039 3.7186 -0.576281 -18.2047 24.234 0.0496219 0.113701 -3.62385 -20.6116 -0.329468 -1.23299 -7.60729 7.53365 -10.8295 3.4304 -2.84338 -12.9547 3.2495 -3.26872 91.8637 22.8255 -8.16083 -29.2081 0.0598081 0.137039 -4.55554 -0.881607 22.4885 -24.234 0.0496218 0.113702 9.02654 -44.0188 5.98087 9.23673 -4.20556 2.0327 -5.12845 2.3007 -11.7328 -0.852353 -38.7721 -0.655187 -0.955277 3.56758 -0.0325368 -2.32622 -40.4017 -6.04875 -0.726135 -2.61128 15.37 0.779096 -9.8844 12.4959 2.48481e-17 -7.95139e-16 1.2424e-17 -9.23673 -4.20556 2.0327 -8.73252 -11.3109 22.5336 0.852353 -38.7721 -0.655187 3.96936 14.6084 -0.25245 2.32622 -40.4017 -6.04875 1.83174 -5.23158 -15.4262 -0.779096 -9.8844 12.4959 -6.93009e-16 -5.56061e-16 -1.2741e-14 
1.48443 91.5622 32.5085 6.81409 -5.07867 -0.196492 0 5.07867 -1.15138 -2.84206 2.6374 0.190935 0 5.61661 1.07143 -2.24178 2.04632 -0.114932 -1.02604e-17 5.98978 0.11501 -1.6976 1.64019 -0.00675257 -1.10457e-17 6.50583 -0.443523 -1.101 0.455847 -0.0236307 -1.97295e-17 7.60548 -1.50593 -0.481828 0.00750348 0.0699422 -2.53307e-17 9.49737 -0.914492 0.147085 -1.06932 -0.261422 -2.90401e-17 10.5513 1.57691 0.0046724 0.814295 -0.0763328 -1.29193e-17 4.78644 0.715339 0.259377 5.52169 1.49953 -1.8116e-17 4.82109 0.421791 0.206758 -3.31632 0.459888 -2.00958e-17 4.83041 0.765062 0.021206 -4.81557 1.8551 1.23299 -7.60731 7.53374 14.2935 3.98377 2.73158 12.9547 3.2495 -3.26872 -96.729 26.7198 6.60698 29.2081 0.0598081 0.137039 3.78183 -0.596908 -18.5247 24.234 0.0496219 0.113701 -3.39452 -21.7589 -0.0571176 -1.23299 -7.60729 7.53365 -9.32603 3.22478 -2.43273 -12.9547 3.2495 -3.26872 90.1195 20.8976 -7.7885 -29.2081 0.0598081 0.137039 -5.04967 -1.0963 25.077 -24.234 0.0496218 0.113702 8.00084 -47.4144 6.14688 9.23673 -4.20556 2.0327 -5.11525 2.16751 -11.7157 -0.852353 -38.7721 -0.655187 -0.974935 3.64096 -0.0325816 -2.32622 -40.4017 -6.04875 -0.687849 -2.68464 15.3752 0.779096 -9.8844 12.4959 3.25762e-16 -7.85735e-16 3.02048e-18 -9.23673 -4.20556 2.0327 -8.70772 -11.4844 22.67 0.852353 -38.7721 -0.655187 3.97597 14.6318 -0.253709 2.32622 -40.4017 -6.04875 1.89259 -5.22112 -15.4324 -0.779096 -9.8844 12.4959 -8.97268e-16 -5.49678e-16 -1.27283e-14 
1.49205 91.5825 32.586 6.77599 -5.02723 -0.248729 0 5.07867 -1.15138 -3.00083 2.27479 0.139885 0 5.61661 1.07143 -2.35332 1.82255 -0.193188 -1.02604e-17 5.98978 0.11501 -1.75522 1.537 -0.0833217 -1.10457e-17 6.50583 -0.443523 -1.10721 0.533357 -0.100918 -1.97295e-17 7.60548 -1.50593 -0.455101 0.22143 0.00332967 -2.53307e-17 9.49737 -0.914492 0.187099 -0.77241 -0.370424 -2.90401e-17 10.5513 1.57691 0.020019 0.790427 -0.0750425 -1.29193e-17 4.78644 0.715339 0.22405 5.17555 1.63891 -1.8116e-17 4.82109 0.421791 0.282842 -3.32896 0.513776 -2.00958e-17 4.83041 0.765062 0.384691 -4.45467 2.28599 1.23299 -7.60731 7.53374 14.3311 3.98895 3.09262 12.9547 3.2495 -3.26872 -96.8206 26.8098 6.45809 29.2081 0.0598081 0.137039 3.8434 -0.61737 -18.8368 24.234 0.0496219 0.113701 -2.96008 -22.1077 0.80326 -1.23299 -7.60729 7.53365 -7.73976 2.79344 -2.24086 -12.9547 3.2495 -3.26872 88.8636 16.6945 -6.72203 -29.2081 0.0598081 0.137039 -5.58246 -1.35849 27.9281 -24.234 0.0496218 0.113702 5.55681 -47.3558 4.8564 9.23673 -4.20556 2.0327 -5.08822 2.06663 -11.6106 -0.852353 -38.7721 -0.655187 -1.00347 3.74745 -0.0326017 -2.32622 -40.4017 -6.04875 -0.762726 -2.70112 15.4001 0.779096 -9.8844 12.4959 -1.79411e-16 -8.01522e-16 1.88071e-17 -9.23673 -4.20556 2.0327 -8.66571 -11.6496 22.8115 0.852353 -38.7721 -0.655187 4.00853 14.7473 -0.259948 2.32622 -40.4017 -6.04875 2.09318 -5.11846 -15.436 -0.779096 -9.8844 12.4959 -6.93009e-16 -5.56061e-16 -1.2741e-14 
1.4956 91.609 32.6683 6.6966 -5.029 -0.350914 0 5.07867 -1.15138 -2.87565 2.46244 0.0775608 0 5.61661 1.07143 -2.24898 1.91399 -0.224744 -1.02604e-17 5.98978 0.11501 -1.67643 1.5223 -0.0936742 -1.10457e-17 6.50583 -0.443523 -1.04149 0.360881 -0.114522 -1.97295e-17 7.60548 -1.50593 -0.41232 -0.0263085 -0.0185564 -2.53307e-17 9.49737 -0.914492 0.199318 -1.15292 -0.385926 -2.90401e-17 10.5513 1.57691 0.0611602 0.779312 -0.0552745 -1.29193e-17 4.78644 0.715339 0.252284 4.57889 1.95702 -1.8116e-17 4.82109 0.421791 0.350612 -2.79665 0.658139 -2.00958e-17 4.83041 0.765062 0.000214383 -3.95318 2.03299 1.23299 -7.60731 7.53374 14.7459 4.41374 2.85396 12.9547 3.2495 -3.26872 -96.7819 27.5811 6.86186 29.2081 0.0598081 0.137039 3.93721 -0.649261 -19.3133 24.234 0.0496219 0.113701 -3.75023 -23.3468 0.59539 -1.23299 -7.60729 7.53365 -8.59137 2.73082 -1.70346 -12.9547 3.2495 -3.26872 84.3052 12.4612 -6.74079 -29.2081 0.0598081 0.137039 -6.27396 -1.7502 31.7402 -24.234 0.0496218 0.113702 8.66497 -48.6672 5.87118 9.23673 -4.20556 2.0327 -5.02165 1.98289 -11.4321 -0.852353 -38.7721 -0.655187 -1.05644 3.9451 -0.0324982 -2.32622 -40.4017 -6.04875 -0.794203 -2.6952 15.4133 0.779096 -9.8844 12.4959 -3.72721e-16 -8.07563e-16 2.48481e-17 -9.23673 -4.20556 2.0327 -8.63424 -11.6414 22.6618 0.852353 -38.7721 -0.655187 3.98493 14.6636 -0.25542 2.32622 -40.4017 -6.04875 2.43604 -5.1099 -15.4836 -0.779096 -9.8844 12.4959 -5.96354e-16 -5.59082e-16 -1.27471e-14 
